<svg xmlns="http://www.w3.org/2000/svg" viewBox="0 0 703.05 628.97"><defs><style>.cls-1{fill:none;}.cls-2{fill:#cc2929;}.cls-3{fill:#ff4242;}.cls-4{fill:#fb8479;}.cls-5{fill:#ff9700;}.cls-6{fill:#ff5f33;}.cls-7{fill:#fcc100;}.cls-8{fill:#fcc686;}.cls-9{fill:#de0000;}.cls-10{fill:#ff6c38;}.cls-11{fill:#f5330c;}.cls-12{fill:#ff5757;}.cls-13{fill:#7a001b;}.cls-14{fill:#00888f;}.cls-15{fill:#044257;}.cls-16{fill:#33bbc5;}.cls-17{fill:#00a6a6;}.cls-18{fill:#0c2f3b;}.cls-19{fill:#56544d;}</style></defs><g id="Layer_2" data-name="Layer 2"><g id="Stacked"><path class="cls-1" d="M588.85,112.41c-10-25.74-28.27-44.14-61-44.14-63.83,0-72.16,71-72.16,129.32,0,17,.72,35.2,3.32,52.39,0,.29.08.58.13.87a157.33,157.33,0,0,0,8.24,32.35c6.83,17.69,17.49,31.92,33.95,39.13h0a65.55,65.55,0,0,0,26.52,5.13,77.34,77.34,0,0,0,10.44-.69c32.92-4.45,48.76-30.3,56.15-62.14l.06-.23c0-.2.09-.4.13-.6,1-4.44,1.86-9,2.57-13.63,2.62-17.13,3.34-35.24,3.35-52.24v-.34c0-12.09-.36-24.73-1.5-37.17a216.35,216.35,0,0,0-4.95-31.12A132.5,132.5,0,0,0,588.85,112.41Z"/><path class="cls-1" d="M588.85,112.41a132.5,132.5,0,0,1,5.23,16.89V108h-.5l54.78-58.24V49.3l-.43-.48v1Z"/><polygon class="cls-1" points="517.88 47.79 463.2 105.8 518 47.79 517.88 47.79"/><path class="cls-1" d="M652.9,215.56v-49l33.71-35.68a211.63,211.63,0,0,0-15.89-47.38l-22,23.32V108h-.07L599,160.42c1.14,12.44,1.5,25.08,1.5,37.17v.34l28.62-30.17v-.92h23.64L629.31,191.7v72.7H594.48l-.06.23h34.69l-90.84,96.58V378L521.6,395.64c2,.06,4.11.09,6.23.09,50.5,0,80.47-14.43,106-35,46.07-38.86,59.39-104.9,59.39-163.18,0-7.86-.25-15.85-.78-23.88Z"/><polygon class="cls-1" points="501.31 322.33 448.49 378.25 448.49 378.25 501.31 322.33 501.31 322.33"/><path class="cls-1" d="M459.12,250.85c-.05-.29-.09-.58-.13-.87l-30.5,32.31v83.28l.08.05V283.2Z"/><path class="cls-2" d="M428.29,92.4v50.37l34.91-37,54.67-58h-.36l43-45.46A215.5,215.5,0,0,0,527.83,0c-45.6,0-75.58,12.3-99.57,30.34V92.43Z"/><path class="cls-3" d="M463.2,105.8l-34.91,37V195.3l.2-.22v87.21L459,250c-2.6-17.19-3.32-35.36-3.32-52.39,0-58.28,8.33-129.32,72.16-129.32,32.75,0,51,18.4,61,44.14l59.08-62.59v-1c-.3-.35-.6-.69-.91-1H518Z"/><path class="cls-4" d="M428.29,142.77V92.4l0,0V30.34c-2,1.51-4,3.05-5.89,4.63C391.2,61,375.17,98.84,368,138.52h18.28l-21.48,22.73A360.94,360.94,0,0,0,363,197.59a333.09,333.09,0,0,0,5.32,61.07l60-63.36Z"/><path class="cls-2" d="M428.49,195.08l-.2.22-60,63.36c4,21.42,10.66,42.3,20.86,61l39.33-41.55Z"/><polygon class="cls-5" points="648.69 107.99 648.69 107.92 648.63 107.99 648.69 107.99"/><polygon class="cls-5" points="648.36 49.75 593.58 107.99 594.08 107.99 594.08 107.92 648.69 107.92 648.69 106.84 648.36 107.19 648.36 49.75"/><path class="cls-6" d="M538.27,326.77v34.44l90.84-96.58H594.42C587,296.47,571.19,322.32,538.27,326.77Z"/><polygon class="cls-7" points="629.31 191.69 652.79 166.84 629.15 166.84 629.15 167.76 629.31 167.6 629.31 191.69"/><path class="cls-8" d="M648.36,107.19l.33-.35,22-23.32A153.07,153.07,0,0,0,648.36,49.3v57.89Z"/><path class="cls-9" d="M368,138.52c-1.37,7.54-2.42,15.14-3.2,22.73l21.48-22.73Z"/><path class="cls-10" d="M652.9,215.56l39.54-41.85a299,299,0,0,0-5.83-42.81L652.9,166.58Z"/><path class="cls-7" d="M594.08,108V129.3A216.35,216.35,0,0,1,599,160.42L648.62,108l.07-.07H594.08Z"/><path class="cls-11" d="M538.27,361.21V326.77a77.34,77.34,0,0,1-10.44.69,65.55,65.55,0,0,1-26.52-5.13l-52.82,55.92c19.23,10.1,42.54,16.61,73.11,17.39L538.27,378Z"/><path class="cls-12" d="M517.87,47.79H647A132.21,132.21,0,0,0,633.83,35C614.35,19.29,592.27,7.19,560.46,2.33l-43,45.46Z"/><path class="cls-5" d="M467.36,283.2H428.57v82.42a147.09,147.09,0,0,0,19.92,12.63l52.82-55.92C484.85,315.12,474.19,300.89,467.36,283.2Z"/><path class="cls-13" d="M428.49,278.12l-39.33,41.55a140.2,140.2,0,0,0,33.21,41.1q3,2.46,6.12,4.8V278.12Z"/><path class="cls-7" d="M428.57,283.2h38.79a157.33,157.33,0,0,1-8.24-32.35Z"/><path class="cls-5" d="M628.63,217.85v46h-34c0,.2-.08.4-.13.6h34.83V167.6l-.16.16-28.62,30.17c0,17-.73,35.11-3.35,52.24Z"/><path class="cls-7" d="M628.63,217.85l-31.45,32.32c-.71,4.63-1.56,9.19-2.57,13.63h34Z"/><path class="cls-1" d="M4.84,258.09c0,.08,0,.16,0,.24H18.53L7.23,269.64a209.55,209.55,0,0,0,11,34.56l46.11-46.11Z"/><path class="cls-1" d="M65.09,338.24,50.37,353l0,0,61.16-61.3v0L65.09,338.13Z"/><path class="cls-1" d="M65,96.85v-.11h.35l79.79-80.13v-.45h27.55l-27.1,27.22v36.3c.55-.22,1.11-.45,1.67-.66l49.2-49.2h0L222,4.3c-8.42-1.53-17.06-2.68-25.88-3.4V16.58H172.56L188.75.39C184,.14,179.15,0,174.28,0a170.85,170.85,0,0,0-66.07,13.21V23.94L61.17,71V43.17C32.21,69.49,10.58,108,3,158.85Z"/><path class="cls-1" d="M253.75,80.14H224.4l.18.06,29.17,0Z"/><path class="cls-1" d="M146.07,368.57V319.46l-.35-.13-.1,49.69Z"/><path class="cls-7" d="M196.07,16.58V.9c-2.43-.2-4.86-.37-7.32-.51L172.56,16.58Z"/><polygon class="cls-4" points="254.18 329.3 314.7 329.3 314.7 268.45 254.18 328.88 254.18 329.3"/><path class="cls-14" d="M287.4,92.14a105.68,105.68,0,0,0,10.06-12H287.4Z"/><path class="cls-14" d="M254.18,260.63v68.25l60.52-60.43V227c0-29.5-12.15-52-48.37-55.12L254.18,184Z"/><polygon class="cls-14" points="255.64 80.14 253.75 80.14 253.75 80.15 255.64 80.14"/><path class="cls-9" d="M254.18,387.91A471.49,471.49,0,0,0,314.7,373V329.3H254.18Z"/><path class="cls-14" d="M254.18,183v1l12.15-12.16c-3.29-.29-6.76-.42-10.46-.38l-60.1.38L162.71,205c-.05,1.25-.09,2.49-.09,3.69,0,23.29,9.39,33.68,29.48,36.42Z"/><path class="cls-14" d="M287.35,80.14,268.09,99.43q3.11,1.86,6.09,3.8A80.87,80.87,0,0,0,287.4,92.14v-12Z"/><path class="cls-15" d="M189.23,325.64c-2,0-3.94.07-5.95.07-14.1,0-26.75-2.13-37.88-6.5v50.36Z"/><path class="cls-15" d="M254.18,260.63H231.72c-.26,7.92-.27,15.6-.28,22.7Z"/><path class="cls-15" d="M168.73,172.06a138.45,138.45,0,0,0-6,32.94l33.06-33.12Z"/><path class="cls-15" d="M255.64,80.14h-1.89l-29.17,0a196,196,0,0,1,43.51,19.23l19.26-19.29Z"/><path class="cls-9" d="M145.62,369l0,25.69q10.62,1,22,1,9,0,17.74-.34l68.17-68.18V388l.65-.12V260.63l-22.74,22.7v38A252.11,252.11,0,0,1,189,325.73l-42.91,42.84Z"/><path class="cls-16" d="M.89,177.44c-.58,7.41-.89,15-.89,22.92a348.18,348.18,0,0,0,2.19,39.72l62.37-62.64Z"/><path class="cls-17" d="M65.33,96.74H65v.11l-62,62c-.9,6-1.6,12.23-2.09,18.59H64.56l.06-.06v-1.29l31.81-31.4c5.06-20.52,13.22-36.35,24.1-47.83H65.21Z"/><path class="cls-4" d="M64.62,177.38v80.46l.36-.36v-.11l27-27a279.56,279.56,0,0,1-1.47-29.49c0-21.67,2-40.35,6-56.23l-31.81,31.4Z"/><path class="cls-7" d="M4.89,258.33q1,5.76,2.34,11.31l11.3-11.31Z"/><path class="cls-16" d="M108.21,23.94V13.21a164.23,164.23,0,0,0-47,30V71Z"/><path class="cls-18" d="M254.18,260.63V183L192.1,245.11a95.11,95.11,0,0,0,12.7.77h27.75c-.41,4.94-.67,9.89-.83,14.75Z"/><path class="cls-5" d="M64.62,257.84V177.38l-.06.06L2.19,240.08c.72,6.15,1.59,12.16,2.65,18H64.37Z"/><polygon class="cls-17" points="145.12 16.16 145.12 16.61 145.57 16.16 145.12 16.16"/><polygon class="cls-17" points="172.67 16.16 145.57 16.16 145.57 43.38 172.67 16.16"/><path class="cls-16" d="M145.57,16.16h0l-.45.45L65.33,96.74l-.12.12h55.32a71.58,71.58,0,0,1,25-17.18V16.16Z"/><path class="cls-3" d="M65,257.48l-.36.36-.25.25L18.26,304.2c8,19,18.71,35.33,32.11,48.76l14.72-14.72v-.11l46.45-46.46c-10.2-15.07-16.83-35.36-19.6-61.26l-27,27Z"/><path class="cls-13" d="M185.36,395.39A496.73,496.73,0,0,0,253.53,388V327.21Z"/><path class="cls-2" d="M145.58,394.71l0-25.69.1-49.69a73,73,0,0,1-34.17-27.64L50.39,353C73.78,376.41,105.42,390.89,145.58,394.71ZM96,353.89v6.68H89.28v-6.68Z"/><path class="cls-17" d="M196.44,74.22a166,166,0,0,1,28,5.92h73.06c8.67-12,15.21-26.35,16.13-40.18A258.55,258.55,0,0,0,222,4.3L196.44,29.82Z"/><path class="cls-16" d="M196.44,29.82,147.24,79c10.09-3.88,21.37-5.76,33.7-5.76a132.12,132.12,0,0,1,15.5,1V29.82Z"/><rect class="cls-11" x="89.28" y="353.89" width="6.68" height="6.68"/><path class="cls-19" d="M96.12,503.35V501q0-29.5-21.93-29.51-12.57,0-18.15,11.47t-5.58,33.79q0,22.14,7,32.9t20.34,10.77a43.18,43.18,0,0,0,15.45-3.29,85.07,85.07,0,0,0,18.44-10.47,38.41,38.41,0,0,1,9.27,9.27,28.24,28.24,0,0,1,5.29,11.27,70.13,70.13,0,0,1-10.67,8.27,76.62,76.62,0,0,1-13.16,6.68,97.74,97.74,0,0,1-14.75,4.49,71.5,71.5,0,0,1-15.46,1.69q-15.34,0-25.92-5.88a48.34,48.34,0,0,1-17.05-15.65,67.22,67.22,0,0,1-9.37-22.53A119.55,119.55,0,0,1,17,517.71q0-17.94,4.49-31.41a66.28,66.28,0,0,1,12.16-22.43,49.42,49.42,0,0,1,18-13.46,55.1,55.1,0,0,1,22.13-4.48,69.65,69.65,0,0,1,21.73,3.19,51.65,51.65,0,0,1,16.65,8.77,38.55,38.55,0,0,1,10.57,13.16,36.84,36.84,0,0,1,3.69,16.35q0,17.75-18.15,17.75A47.91,47.91,0,0,1,96.12,503.35Z"/><path class="cls-19" d="M138.19,500.16a35.31,35.31,0,0,1,3.79-8.87,24.19,24.19,0,0,1,5.58-7.08q18.34,1.4,25.52,18.15,7.57-18,24.92-17.95a69.13,69.13,0,0,1,13.16,1.6,62.15,62.15,0,0,1-2.09,14.65,52.44,52.44,0,0,1-5.68,14.46,50.67,50.67,0,0,0-10.17-2q-10,0-16.35,10.17v62a87.2,87.2,0,0,1-15.45,1.2,90.7,90.7,0,0,1-15.66-1.2V520.9Q145.76,505.95,138.19,500.16Z"/><path class="cls-19" d="M305.87,571a33.32,33.32,0,0,1-3.79,9,22.72,22.72,0,0,1-5.78,7q-13.95-.4-21.53-10.57-13,12-28.12,12a34,34,0,0,1-13.55-2.49,29.19,29.19,0,0,1-9.77-6.68,27.44,27.44,0,0,1-6-9.67,33.25,33.25,0,0,1-2-11.46,34.62,34.62,0,0,1,3.09-15.06,30.14,30.14,0,0,1,8.48-10.77,37.69,37.69,0,0,1,12.56-6.48,52.3,52.3,0,0,1,15.35-2.19c3.06,0,5.75,0,8.07.1s4.36.17,6.09.3v-3.83q0-12.72-13-12.72-8.38,0-29.31,6.58-6-7-7.58-21.73,4.79-1.8,10.67-3.39T241.87,486q6.18-1.2,12.16-1.9a95.13,95.13,0,0,1,10.77-.7,45.5,45.5,0,0,1,13.46,2,32.38,32.38,0,0,1,11.36,6.08,28.79,28.79,0,0,1,7.78,10.57,37.84,37.84,0,0,1,2.89,15.45V558Q300.29,567.16,305.87,571Zm-60.21-15q0,9.38,10.76,9.37,5.58,0,12.57-5.78v-16q-4-.2-6.68-.3c-1.8-.07-3.16-.1-4.09-.1Q245.65,543.23,245.66,556Z"/><path class="cls-19" d="M407.36,489l-24.52,93.71q-5.79,21.54-15.36,33.1Q356.52,629,333.79,629a75.86,75.86,0,0,1-24.13-4,32.65,32.65,0,0,1,1.2-12.06q1.78-6.69,5-10.27a56.54,56.54,0,0,0,18,3q14.74,0,19.54-16.15l.79-2.79q-17.34,0-20.73-12.56L310.26,488.2A41.51,41.51,0,0,1,327.41,484q8,0,11.66,3t5.48,10.37l9.18,38.28q1.38,5.39,4.58,26.32a1.46,1.46,0,0,0,1.6,1.4L377.25,486a48,48,0,0,1,13-1.4,52.13,52.13,0,0,1,16,2.19Z"/><path class="cls-19" d="M489.71,494.58q14.35,14.35,14.36,41.07A72.17,72.17,0,0,1,501,557.39,47.4,47.4,0,0,1,492,574a39,39,0,0,1-14.45,10.56,49.58,49.58,0,0,1-19.74,3.69,47.63,47.63,0,0,1-19.64-3.79,40.21,40.21,0,0,1-14.36-10.66,46,46,0,0,1-8.87-16.65,79.41,79.41,0,0,1,0-43.17,47.86,47.86,0,0,1,8.77-16.65,38.72,38.72,0,0,1,14.36-10.77,48.48,48.48,0,0,1,19.74-3.78Q477.55,482.82,489.71,494.58Zm-31.8,11.56a11.32,11.32,0,0,0-7.13,2.1,14.42,14.42,0,0,0-4.32,5.68,29.32,29.32,0,0,0-2.21,8.27,79.5,79.5,0,0,0-.6,10.07q0,8.38.5,14.46a39.37,39.37,0,0,0,2,10.17,12.74,12.74,0,0,0,4.22,6.08,11.71,11.71,0,0,0,7.12,2q8.83,0,11.65-7.67T472,535.45q0-14.36-2.81-21.83T457.91,506.14Z"/><path class="cls-19" d="M607.75,519.5v40.88q0,13.15,4.78,19.74a26.28,26.28,0,0,1-18.14,6.78q-10.38,0-14.16-4.79t-3.79-14.55V525.09c0-4.52-.6-7.85-1.79-10s-3.53-3.19-7-3.19a17.76,17.76,0,0,0-6.78,1.59,28.25,28.25,0,0,0-7.78,5.19V585.3q-3.39.6-7.37.9t-8.18.3c-2.79,0-5.52-.1-8.17-.3s-5.12-.5-7.38-.9V485.81l1.39-1.4h11.77q12.15,0,16.35,12,14-12.36,27.71-12.36,14,0,21.24,9.67T607.75,519.5Z"/><path class="cls-19" d="M623.1,578.52a34.15,34.15,0,0,1,2.69-11.36,30.91,30.91,0,0,1,5.88-9.77q15.95,8.37,27.72,8.37,5.58,0,8.57-1.89a5.77,5.77,0,0,0,3-5.09q0-6-9.17-9l-11-4.19q-24.91-9.17-24.92-29.91,0-15.15,10.47-24t28.21-8.87a84.85,84.85,0,0,1,19.34,2.49,80.65,80.65,0,0,1,17.35,5.88,28.62,28.62,0,0,1-2.19,12.26q-2.6,6.69-6.38,9.47-16.76-7.57-27.92-7.57c-2.66,0-4.69.59-6.08,1.79a5.77,5.77,0,0,0-2.09,4.59q0,4.78,7.57,7.57l12.37,4.39q26.51,9.38,26.51,32.1,0,15-11,23.73t-31.31,8.77A75.41,75.41,0,0,1,623.1,578.52Z"/></g></g></svg>