<svg xmlns="http://www.w3.org/2000/svg" viewBox="0 0 1477.2 417.48"><defs><style>.cls-1{fill:none;}.cls-2{fill:#cc2929;}.cls-3{fill:#ff4242;}.cls-4{fill:#fb8479;}.cls-5{fill:#ff9700;}.cls-6{fill:#ff5f33;}.cls-7{fill:#fcc100;}.cls-8{fill:#fcc686;}.cls-9{fill:#de0000;}.cls-10{fill:#ff6c38;}.cls-11{fill:#f5330c;}.cls-12{fill:#ff5757;}.cls-13{fill:#7a001b;}.cls-14{fill:#00888f;}.cls-15{fill:#044257;}.cls-16{fill:#33bbc5;}.cls-17{fill:#00a6a6;}.cls-18{fill:#0c2f3b;}.cls-19{fill:#56544d;}</style></defs><g id="Layer_2" data-name="Layer 2"><g id="Horizontal"><path class="cls-1" d="M438.48,83.71C431,64.54,417.44,50.84,393,50.84c-47.53,0-53.72,52.9-53.72,96.29a265.84,265.84,0,0,0,2.46,39c0,.21.07.43.1.65A117.6,117.6,0,0,0,348,210.88c5.08,13.18,13,23.78,25.28,29.14h0A48.76,48.76,0,0,0,393,243.85a58.39,58.39,0,0,0,7.78-.52c24.52-3.32,36.31-22.56,41.82-46.27a1.16,1.16,0,0,1,0-.18c0-.14.06-.29.1-.44q1.13-5,1.91-10.15a262.84,262.84,0,0,0,2.5-38.9v-.26c0-9-.27-18.41-1.12-27.67a162,162,0,0,0-3.69-23.18A98.53,98.53,0,0,0,438.48,83.71Z"/><path class="cls-1" d="M438.48,83.71a98.53,98.53,0,0,1,3.9,12.57V80.42H442L482.8,37.05v-.34l-.32-.36v.75Z"/><polygon class="cls-1" points="385.63 35.59 344.92 78.78 385.73 35.59 385.63 35.59"/><path class="cls-1" d="M486.18,160.52V124l25.1-26.57a157.29,157.29,0,0,0-11.83-35.28l-16.4,17.37v.86H483l-36.93,39c.85,9.26,1.12,18.67,1.12,27.67v.26l21.31-22.47v-.69h17.6l-17.49,18.52v54.13H442.68a1.16,1.16,0,0,0,0,.18h25.83L400.82,269v12.49l-12.41,13.14c1.52,0,3.06.07,4.63.07,37.61,0,59.93-10.75,78.94-26,34.31-28.93,44.23-78.11,44.23-121.51,0-5.85-.19-11.8-.59-17.78Z"/><polygon class="cls-1" points="373.3 240.02 333.96 281.67 333.96 281.67 373.3 240.02 373.3 240.02"/><path class="cls-1" d="M341.88,186.8c0-.22-.06-.44-.1-.65l-22.7,24v62l.05,0V210.88Z"/><path class="cls-2" d="M318.92,68.81v37.5l26-27.53,40.71-43.19h-.26l32-33.86A161,161,0,0,0,393,0c-34,0-56.28,9.16-74.14,22.59V68.83Z"/><path class="cls-3" d="M344.92,78.78l-26,27.53v39.12l.16-.16V210.2l22.7-24a265.84,265.84,0,0,1-2.46-39c0-43.39,6.19-96.29,53.72-96.29,24.4,0,38,13.7,45.44,32.87l44-46.61v-.75l-.68-.76H385.73Z"/><path class="cls-4" d="M318.92,106.31V68.81l0,0V22.59q-2.23,1.68-4.38,3.45C291.3,45.38,279.37,73.6,274,103.15h13.61l-16,16.93a266.79,266.79,0,0,0-1.34,27.05,248.4,248.4,0,0,0,4,45.48l44.67-47.18Z"/><path class="cls-2" d="M319.08,145.27l-.16.16-44.67,47.18c3,15.95,7.94,31.5,15.53,45.43l29.3-30.94Z"/><polygon class="cls-5" points="483.05 80.42 483.05 80.36 483 80.42 483.05 80.42"/><polygon class="cls-5" points="482.8 37.05 442.01 80.42 442.38 80.42 442.38 80.36 483.05 80.36 483.05 79.56 482.8 79.82 482.8 37.05"/><path class="cls-6" d="M400.82,243.33V269l67.65-71.92H442.64C437.13,220.77,425.34,240,400.82,243.33Z"/><polygon class="cls-7" points="468.61 142.75 486.1 124.23 468.5 124.23 468.5 124.92 468.61 124.8 468.61 142.75"/><path class="cls-8" d="M482.8,79.82l.25-.26,16.4-17.37A113.79,113.79,0,0,0,482.8,36.71V79.82Z"/><path class="cls-9" d="M274,103.15c-1,5.61-1.81,11.27-2.38,16.93l16-16.93Z"/><path class="cls-10" d="M486.18,160.52l29.44-31.17a221.21,221.21,0,0,0-4.34-31.88L486.18,124Z"/><path class="cls-7" d="M442.38,80.42V96.28a162,162,0,0,1,3.69,23.18l36.93-39,.05-.06H442.38Z"/><path class="cls-11" d="M400.82,269V243.33a58.39,58.39,0,0,1-7.78.52A48.76,48.76,0,0,1,373.3,240L334,281.66c14.32,7.52,31.69,12.37,54.45,12.95l12.41-13.14Z"/><path class="cls-12" d="M385.63,35.59H481.8A98.56,98.56,0,0,0,472,26C457.47,14.37,441,5.35,417.34,1.73l-32,33.86Z"/><path class="cls-5" d="M348,210.88H319.13v61.38a109.77,109.77,0,0,0,14.83,9.4L373.3,240C361,234.66,353.1,224.06,348,210.88Z"/><path class="cls-13" d="M319.08,207.1,289.78,238a104.15,104.15,0,0,0,24.74,30.6q2.24,1.85,4.56,3.58V207.1Z"/><path class="cls-7" d="M319.13,210.88H348a117.6,117.6,0,0,1-6.14-24.08Z"/><path class="cls-5" d="M468.11,162.22v34.22H442.78c0,.15-.07.3-.1.44h25.93V124.8l-.11.12-21.31,22.47a262.84,262.84,0,0,1-2.5,38.9Z"/><path class="cls-7" d="M468.11,162.22l-23.42,24.07q-.79,5.18-1.91,10.15h25.33Z"/><path class="cls-1" d="M3.61,192.18l0,.19H13.8l-8.42,8.41a155.7,155.7,0,0,0,8.22,25.74l34.34-34.34Z"/><path class="cls-1" d="M48.47,251.87l-11,11,0,0L83.07,217.2h0l-34.59,34.6Z"/><path class="cls-1" d="M48.39,72.12V72h.26l59.42-59.67V12h20.51L108.4,32.3v27l1.24-.5L146.28,22.2h0l19-19Q155.86,1.49,146,.67V12.35H128.5L140.55.29Q135.23,0,129.78,0a127.35,127.35,0,0,0-49.2,9.83v8l-35,35V32.14C24,51.74,7.88,80.38,2.22,118.29Z"/><path class="cls-1" d="M189,59.68H167.1l.13,0,21.73,0Z"/><path class="cls-1" d="M108.77,274.46V237.89l-.26-.1-.07,37Z"/><path class="cls-7" d="M146,12.35V.67c-1.8-.15-3.62-.28-5.45-.38L128.5,12.35Z"/><polygon class="cls-4" points="189.27 245.21 234.34 245.21 234.34 199.9 189.27 244.9 189.27 245.21"/><path class="cls-14" d="M214,68.61a77.72,77.72,0,0,0,7.49-8.93H214Z"/><path class="cls-14" d="M189.27,194.08V244.9l45.07-45V169c0-22-9-38.73-36-41l-9.06,9Z"/><polygon class="cls-14" points="190.36 59.68 188.96 59.68 188.96 59.68 190.36 59.68"/><path class="cls-9" d="M189.27,288.86a351.73,351.73,0,0,0,45.07-11.12V245.21H189.27Z"/><path class="cls-14" d="M189.27,136.29V137l9.06-9a77.91,77.91,0,0,0-7.8-.28l-44.75.28-24.62,24.66c0,.94-.06,1.86-.06,2.75,0,17.35,7,25.08,21.94,27.12Z"/><path class="cls-14" d="M214,59.68,199.63,74c1.54.92,3.06,1.87,4.54,2.83A59.67,59.67,0,0,0,214,68.61V59.68Z"/><path class="cls-15" d="M140.91,242.49c-1.46,0-2.94,0-4.43,0-10.5,0-19.92-1.58-28.21-4.84v37.5Z"/><path class="cls-15" d="M189.27,194.08H172.55c-.2,5.9-.2,11.62-.21,16.9Z"/><path class="cls-15" d="M125.64,128.12a103.34,103.34,0,0,0-4.48,24.53L145.78,128Z"/><path class="cls-15" d="M190.36,59.68H189l-21.73,0A146,146,0,0,1,199.63,74L214,59.68Z"/><path class="cls-9" d="M108.44,274.79l0,19.13c5.28.5,10.74.76,16.41.76q6.7,0,13.21-.25l50.77-50.77v45.28l.48-.08V194.08L172.34,211V239.3a186.8,186.8,0,0,1-31.62,3.25l-31.95,31.91Z"/><path class="cls-16" d="M.66,132.13C.23,137.65,0,143.33,0,149.2a259,259,0,0,0,1.63,29.57l46.44-46.64Z"/><path class="cls-17" d="M48.65,72h-.26v.08L2.22,118.29q-1,6.72-1.56,13.84H48.07l0,0v-1l23.69-23.39c3.76-15.28,9.84-27.06,17.94-35.61H48.56Z"/><path class="cls-4" d="M48.12,132.09V192l.27-.27v-.08l20.07-20.07a209.05,209.05,0,0,1-1.09-22c0-16.13,1.53-30,4.44-41.87L48.12,131.13Z"/><path class="cls-7" d="M3.64,192.37c.52,2.86,1.11,5.66,1.74,8.41l8.42-8.41Z"/><path class="cls-16" d="M80.58,17.83v-8a122.61,122.61,0,0,0-35,22.31V52.86Z"/><path class="cls-18" d="M189.27,194.08V136.29L143,182.52a70.57,70.57,0,0,0,9.47.57h20.66c-.31,3.68-.5,7.37-.62,11Z"/><path class="cls-5" d="M48.12,192V132.09l0,0L1.63,178.77q.8,6.89,2,13.41H47.94Z"/><polygon class="cls-17" points="108.07 12.03 108.07 12.37 108.4 12.03 108.07 12.03"/><polygon class="cls-17" points="128.58 12.03 108.4 12.03 108.4 32.3 128.58 12.03"/><path class="cls-16" d="M108.4,12h0l-.33.34L48.65,72l-.09.09H89.75A53.22,53.22,0,0,1,108.4,59.34V12Z"/><path class="cls-3" d="M48.39,191.73l-.27.27-.18.18L13.6,226.52a113.1,113.1,0,0,0,23.91,36.31l11-11v-.08l34.59-34.6c-7.6-11.22-12.54-26.33-14.6-45.61L48.39,191.65Z"/><path class="cls-13" d="M138,294.43a367.55,367.55,0,0,0,50.77-5.49V243.66Z"/><path class="cls-2" d="M108.4,293.92l0-19.13.07-37A54.33,54.33,0,0,1,83.07,217.2L37.53,262.85C54.94,280.29,78.5,291.07,108.4,293.92ZM71.45,263.53v5h-5v-5Z"/><path class="cls-17" d="M146.28,55.27a123.32,123.32,0,0,1,20.82,4.41h54.4c6.46-9,11.33-19.63,12-29.92A192.65,192.65,0,0,0,165.28,3.2l-19,19Z"/><path class="cls-16" d="M146.28,22.2,109.64,58.84a69.8,69.8,0,0,1,25.09-4.28,96.62,96.62,0,0,1,11.55.71V22.2Z"/><rect class="cls-11" x="66.48" y="263.53" width="4.97" height="4.97"/><path class="cls-19" d="M662.83,248.93v-3.21q0-39.58-29.43-39.59-16.85,0-24.34,15.38t-7.49,45.35q0,29.7,9.36,44.14t27.29,14.45q9.36,0,20.73-4.42t24.75-14a51.45,51.45,0,0,1,12.44,12.44q5.75,7.89,7.09,15.11a93.06,93.06,0,0,1-14.31,11.11,103.7,103.7,0,0,1-17.66,9,130.61,130.61,0,0,1-19.8,6,96.3,96.3,0,0,1-20.73,2.27q-20.61,0-34.78-7.89a64.75,64.75,0,0,1-22.88-21,90.24,90.24,0,0,1-12.57-30.23,160.39,160.39,0,0,1-3.88-35.58q0-24.09,6-42.14T579,196a66.08,66.08,0,0,1,24.21-18.06,74,74,0,0,1,29.7-6A93.71,93.71,0,0,1,662,176.16a69.22,69.22,0,0,1,22.34,11.77,52,52,0,0,1,14.18,17.66,49.45,49.45,0,0,1,5,21.94q0,23.82-24.35,23.81A64.31,64.31,0,0,1,662.83,248.93Z"/><path class="cls-19" d="M719.28,244.65a47.91,47.91,0,0,1,5.08-11.9q3.75-6.56,7.49-9.5,24.61,1.88,34.25,24.34,10.15-24.08,33.44-24.07a93.4,93.4,0,0,1,17.66,2.14,83.88,83.88,0,0,1-2.81,19.66,70.69,70.69,0,0,1-7.63,19.4A67.91,67.91,0,0,0,793.12,262q-13.38,0-21.94,13.65v83.2a117.39,117.39,0,0,1-20.73,1.6,122.15,122.15,0,0,1-21-1.6V272.47Q729.44,252.42,719.28,244.65Z"/><path class="cls-19" d="M944.27,339.63a44.89,44.89,0,0,1-5.08,12c-2.5,4.28-5.08,7.39-7.76,9.36q-18.73-.54-28.89-14.18-17.4,16-37.72,16a45.69,45.69,0,0,1-18.2-3.34,39.49,39.49,0,0,1-13.11-9,36.79,36.79,0,0,1-8-13,44.48,44.48,0,0,1-2.68-15.38A46.36,46.36,0,0,1,827,302a40.33,40.33,0,0,1,11.37-14.45,50.35,50.35,0,0,1,16.85-8.69,70.21,70.21,0,0,1,20.6-2.95c4.1,0,7.72.05,10.84.14s5.84.22,8.16.4v-5.14q0-17.07-17.39-17.07-11.24,0-39.33,8.83-8-9.36-10.16-29.16,6.42-2.4,14.31-4.55t16.18-3.74q8.29-1.6,16.32-2.54a124.82,124.82,0,0,1,14.45-.94,61.21,61.21,0,0,1,18.06,2.67A43.59,43.59,0,0,1,922.47,233a38.68,38.68,0,0,1,10.43,14.18q3.89,8.7,3.88,20.74v54.31Q936.78,334.54,944.27,339.63Zm-80.79-20.07q0,12.58,14.44,12.58,7.5,0,16.86-7.76V303c-3.57-.17-6.56-.31-9-.4s-4.24-.13-5.49-.13Q863.49,302.44,863.48,319.56Z"/><path class="cls-19" d="M1080.45,229.67l-32.91,125.74q-7.77,28.89-20.6,44.41-14.72,17.65-45.21,17.66a102,102,0,0,1-32.38-5.35A44,44,0,0,1,951,395.94q2.4-9,6.69-13.78a75.59,75.59,0,0,0,24.08,4q19.78,0,26.22-21.67l1.06-3.75q-23.26,0-27.82-16.85l-31-115.31q12.3-5.62,23-5.62t15.66,4q4.93,4,7.35,13.91l12.31,51.36q1.86,7.23,6.15,35.32a1.94,1.94,0,0,0,2.14,1.87l23.28-103.8q6.42-1.87,17.39-1.88a69.81,69.81,0,0,1,21.4,2.95Z"/><path class="cls-19" d="M1190.94,237.16q19.26,19.26,19.26,55.11a96.17,96.17,0,0,1-4.15,29.16,63.32,63.32,0,0,1-12,22.34,52.36,52.36,0,0,1-19.4,14.18q-11.5,4.95-26.49,4.95t-26.35-5.08a54,54,0,0,1-19.26-14.31,61.8,61.8,0,0,1-11.91-22.34,106.58,106.58,0,0,1,0-57.92,64.47,64.47,0,0,1,11.77-22.34,51.94,51.94,0,0,1,19.27-14.45q11.49-5.09,26.48-5.08Q1174.62,221.38,1190.94,237.16Zm-42.67,15.52c-4,0-7.14.93-9.57,2.81a19.46,19.46,0,0,0-5.79,7.62,39.42,39.42,0,0,0-3,11.1,108,108,0,0,0-.8,13.51q0,11.25.67,19.4a52.85,52.85,0,0,0,2.69,13.65,17.15,17.15,0,0,0,5.66,8.15c2.43,1.79,5.61,2.68,9.57,2.68q11.85,0,15.62-10.3t3.78-29.29q0-19.27-3.78-29.3T1148.27,252.68Z"/><path class="cls-19" d="M1349.32,270.6v54.85q0,17.66,6.42,26.48a35.26,35.26,0,0,1-24.35,9.1q-13.92,0-19-6.42t-5.09-19.53v-57q0-9.09-2.4-13.37t-9.37-4.28a23.72,23.72,0,0,0-9.09,2.14,37.88,37.88,0,0,0-10.44,6.95v89.36a99.46,99.46,0,0,1-9.9,1.2c-3.57.27-7.22.4-11,.4s-7.4-.13-11-.4a99.61,99.61,0,0,1-9.89-1.2V225.39l1.87-1.87h15.78q16.32,0,21.94,16Q1292.59,223,1311.06,223q18.72,0,28.49,13T1349.32,270.6Z"/><path class="cls-19" d="M1369.92,349.79a45.46,45.46,0,0,1,3.61-15.25,41.44,41.44,0,0,1,7.89-13.11q21.4,11.24,37.19,11.24,7.48,0,11.5-2.54a7.74,7.74,0,0,0,4-6.82q0-8-12.3-12l-14.72-5.62q-33.45-12.3-33.44-40.13,0-20.32,14-32.24t37.85-11.9a113.72,113.72,0,0,1,26,3.34,108.77,108.77,0,0,1,23.28,7.89,38.4,38.4,0,0,1-2.94,16.46q-3.48,9-8.57,12.7-22.47-10.15-37.45-10.16-5.36,0-8.16,2.41a7.73,7.73,0,0,0-2.81,6.15q0,6.42,10.17,10.17l16.58,5.88q35.58,12.58,35.59,43.07,0,20.07-14.72,31.84t-42,11.77A101.28,101.28,0,0,1,1369.92,349.79Z"/></g></g></svg>